<svg width="20" height="20" viewBox="0 0 20 20" fill="none" xmlns="http://www.w3.org/2000/svg">
<path d="M10 18.3334C8.86113 18.3334 7.78474 18.1147 6.77085 17.6772C5.75696 17.2397 4.87155 16.6424 4.1146 15.8855C3.35766 15.1286 2.76044 14.2431 2.32294 13.2292C1.88544 12.2154 1.66669 11.139 1.66669 10.0001C1.66669 8.8473 1.88544 7.76744 2.32294 6.7605C2.76044 5.75355 3.35766 4.87161 4.1146 4.11466C4.87155 3.35772 5.75696 2.7605 6.77085 2.323C7.78474 1.8855 8.86113 1.66675 10 1.66675C11.1528 1.66675 12.2327 1.8855 13.2396 2.323C14.2465 2.7605 15.1285 3.35772 15.8854 4.11466C16.6424 4.87161 17.2396 5.75355 17.6771 6.7605C18.1146 7.76744 18.3334 8.8473 18.3334 10.0001C18.3334 11.139 18.1146 12.2154 17.6771 13.2292C17.2396 14.2431 16.6424 15.1286 15.8854 15.8855C15.1285 16.6424 14.2465 17.2397 13.2396 17.6772C12.2327 18.1147 11.1528 18.3334 10 18.3334ZM10 16.6251C10.3611 16.1251 10.6736 15.6042 10.9375 15.0626C11.2014 14.5209 11.4167 13.9445 11.5834 13.3334H8.41669C8.58335 13.9445 8.79863 14.5209 9.06252 15.0626C9.32641 15.6042 9.63891 16.1251 10 16.6251ZM7.83335 16.2917C7.58335 15.8334 7.3646 15.3577 7.1771 14.8647C6.9896 14.3716 6.83335 13.8612 6.70835 13.3334H4.25002C4.6528 14.0279 5.15627 14.632 5.76044 15.1459C6.3646 15.6598 7.05558 16.0417 7.83335 16.2917ZM12.1667 16.2917C12.9445 16.0417 13.6354 15.6598 14.2396 15.1459C14.8438 14.632 15.3472 14.0279 15.75 13.3334H13.2917C13.1667 13.8612 13.0104 14.3716 12.8229 14.8647C12.6354 15.3577 12.4167 15.8334 12.1667 16.2917ZM3.54169 11.6667H6.37502C6.33335 11.389 6.3021 11.1147 6.28127 10.8438C6.26044 10.573 6.25002 10.2917 6.25002 10.0001C6.25002 9.70842 6.26044 9.42717 6.28127 9.15633C6.3021 8.8855 6.33335 8.61119 6.37502 8.33342H3.54169C3.47224 8.61119 3.42016 8.8855 3.38544 9.15633C3.35071 9.42717 3.33335 9.70842 3.33335 10.0001C3.33335 10.2917 3.35071 10.573 3.38544 10.8438C3.42016 11.1147 3.47224 11.389 3.54169 11.6667ZM8.04169 11.6667H11.9584C12 11.389 12.0313 11.1147 12.0521 10.8438C12.0729 10.573 12.0834 10.2917 12.0834 10.0001C12.0834 9.70842 12.0729 9.42717 12.0521 9.15633C12.0313 8.8855 12 8.61119 11.9584 8.33342H8.04169C8.00002 8.61119 7.96877 8.8855 7.94794 9.15633C7.9271 9.42717 7.91669 9.70842 7.91669 10.0001C7.91669 10.2917 7.9271 10.573 7.94794 10.8438C7.96877 11.1147 8.00002 11.389 8.04169 11.6667ZM13.625 11.6667H16.4584C16.5278 11.389 16.5799 11.1147 16.6146 10.8438C16.6493 10.573 16.6667 10.2917 16.6667 10.0001C16.6667 9.70842 16.6493 9.42717 16.6146 9.15633C16.5799 8.8855 16.5278 8.61119 16.4584 8.33342H13.625C13.6667 8.61119 13.6979 8.8855 13.7188 9.15633C13.7396 9.42717 13.75 9.70842 13.75 10.0001C13.75 10.2917 13.7396 10.573 13.7188 10.8438C13.6979 11.1147 13.6667 11.389 13.625 11.6667ZM13.2917 6.66675H15.75C15.3472 5.9723 14.8438 5.36814 14.2396 4.85425C13.6354 4.34036 12.9445 3.95841 12.1667 3.70841C12.4167 4.16675 12.6354 4.64244 12.8229 5.1355C13.0104 5.62855 13.1667 6.13897 13.2917 6.66675ZM8.41669 6.66675H11.5834C11.4167 6.05564 11.2014 5.47925 10.9375 4.93758C10.6736 4.39591 10.3611 3.87508 10 3.37508C9.63891 3.87508 9.32641 4.39591 9.06252 4.93758C8.79863 5.47925 8.58335 6.05564 8.41669 6.66675ZM4.25002 6.66675H6.70835C6.83335 6.13897 6.9896 5.62855 7.1771 5.1355C7.3646 4.64244 7.58335 4.16675 7.83335 3.70841C7.05558 3.95841 6.3646 4.34036 5.76044 4.85425C5.15627 5.36814 4.6528 5.9723 4.25002 6.66675Z" fill="#1D1B20"/>
</svg>
